<?xml version="1.0" encoding="UTF-8"?>
<svg width="78px" height="31px" viewBox="0 0 78 31" version="1.1" xmlns="http://www.w3.org/2000/svg" xmlns:xlink="http://www.w3.org/1999/xlink">
    <!-- Generator: Sketch 64 (93537) - https://sketch.com -->
    <title>Logo</title>
    <desc>Created with Sketch.</desc>
    <g id="UI" stroke="none" stroke-width="1" fill="none" fill-rule="evenodd" opacity="0.0883324033">
        <g id="Simple-Version-2" transform="translate(-24.000000, -32.000000)" fill="#000000" fill-rule="nonzero">
            <g id="Logo" transform="translate(24.000000, 32.000000)">
                <path d="M16.339498,31 C23.4649934,31 31,21.7377964 31,10.3319386 C31,4.70990237 27.9286658,2 23.014531,2 C19.0832232,2 15.8480845,5.15481172 15.8480845,6.61087866 C15.8480845,6.81311018 15.9709379,7.0153417 16.1756935,7.17712692 C17.7727873,8.79497908 18.8784676,10.6555091 18.8784676,14.7810321 C18.8784676,19.1896792 17.7727873,22.7085077 17.1175694,24.5285914 C16.667107,21.1715481 16.2985469,15.3877266 15.4795244,11.7475593 C14.3738441,6.89400279 11.67107,2.80892608 6.51122853,2.80892608 C3.27608983,2.80892608 0,4.22454672 0,6.12552301 C1.18758256,8.18828452 3.15323646,13.8912134 4.34081902,17.7740586 C6.67503303,25.3779637 10.2787318,31 16.339498,31 Z M44.9281553,31 C50.2291262,31 54.7145631,28.8677249 54.7145631,26.1613757 C54.7145631,25.6693122 54.4699029,24.7261905 54.1029126,24.5621693 C53.2058252,25.4232804 51.0854369,26.0793651 50.0660194,26.0793651 C49.2912621,26.0793651 48.7203883,25.5462963 48.7203883,24.5621693 L48.7203883,11.8505291 L51.4932039,12.6706349 C53.1650485,12.6706349 55,9.67724868 55,7.21693122 L48.7203883,7.21693122 C48.7203883,5.16666667 49.2504854,3.56746032 49.2504854,2.82936508 C49.2504854,1.8042328 46.1106796,0 43.0524272,0 C40.8912621,0 37.4252427,1.18915344 37.4252427,2.82936508 C37.4252427,3.60846561 37.9961165,5.98677249 37.9961165,7.58597884 L35.8757282,6.92989418 C34.2446602,6.92989418 34,10.9484127 34,12.1375661 L37.1805825,12.1375661 C37.6699029,12.1375661 37.9961165,12.7526455 37.9961165,13.6137566 L37.9961165,24.0291005 C37.9961165,27.7195767 39.423301,31 44.9281553,31 Z M70.6653307,29.7559322 C70.9458918,29.6745763 71.3066132,29.1864407 71.3066132,28.7389831 C71.3066132,28.0474576 70.7855711,25.9728814 70.7855711,24.5084746 L70.7855711,15.6813559 C70.7855711,14.2576271 71.8276553,12.9559322 73.0300601,12.9559322 C74.1523046,12.9559322 75.1543086,13.5254237 75.4749499,14.2169492 C76.7174349,13.7694915 78,12.0610169 78,9.53898305 C78,7.34237288 76.5571142,6 74.0320641,6 C71.5871743,6 69.2224449,7.74915254 68.3807615,9.94576271 C67.4589178,7.74915254 65.9358717,6.77288136 63.6913828,6.77288136 C60.8456914,6.77288136 58,8.2779661 58,10.6779661 C58,10.8 58.0400802,10.9220339 58.0801603,11.0033898 C59.002004,11.4101695 60.244489,12.8338983 60.244489,14.9084746 L60.244489,23.5728814 C60.244489,25.4847458 59.8837675,27.9254237 59.8837675,28.6169492 C59.8837675,29.1050847 60.0841683,29.3898305 60.2845691,29.5118644 C60.8201858,29.7836672 62.780056,29.9813419 65.0835397,29.9987508 L65.4148297,30 C67.5791583,30 69.8637275,29.959322 70.6653307,29.7559322 Z" id="Vtr"></path>
            </g>
        </g>
    </g>
</svg>